<svg xmlns="http://www.w3.org/2000/svg" width="67" height="67" viewBox="0 0 67 67"><defs><style>.a{fill:#f2d655;stroke:#f2d655;stroke-miterlimit:10;stroke-width:2px;}.b{fill:#262626;}</style></defs><g transform="translate(1 1)"><rect class="a" width="65" height="65" rx="32.5"/><g transform="translate(-296.152 -252)"><g transform="translate(303.317 265.406)"><path class="b" d="M15.92,25.2a12.63,12.63,0,0,0,5.723-1.457.028.028,0,0,1,.024,0,8.178,8.178,0,0,0,4.139.908,1.039,1.039,0,0,0,.671-1.685,10.294,10.294,0,0,1-1.271-2.011.031.031,0,0,1,.009-.029,12.589,12.589,0,0,0,.316-16.268.639.639,0,0,0-.991.806,11.312,11.312,0,0,1-.284,14.617,1.3,1.3,0,0,0-.2,1.428,11.731,11.731,0,0,0,1.149,1.9,8.035,8.035,0,0,1-2.992-.821,1.311,1.311,0,0,0-1.168.027A11.232,11.232,0,0,1,7.883,20.681,11.3,11.3,0,0,1,22.5,3.509a.639.639,0,1,0,.762-1.025A12.573,12.573,0,0,0,6.992,21.6,12.508,12.508,0,0,0,15.758,25.2Z"/><path class="b" d="M197.387,123.689a2.257,2.257,0,1,0,2.257-2.257A2.26,2.26,0,0,0,197.387,123.689Zm3.237,0a.98.98,0,1,1-.98-.98A.981.981,0,0,1,200.624,123.689Z" transform="translate(-177.697 -111.093)"/><path class="b" d="M124.651,123.689a2.257,2.257,0,1,0,2.257-2.257A2.26,2.26,0,0,0,124.651,123.689Zm3.237,0a.98.98,0,1,1-.98-.98A.981.981,0,0,1,127.888,123.689Z" transform="translate(-111.154 -111.093)"/><path class="b" d="M51.916,123.689a2.257,2.257,0,1,0,2.257-2.257A2.26,2.26,0,0,0,51.916,123.689Zm3.237,0a.98.98,0,1,1-.98-.98A.981.981,0,0,1,55.153,123.689Z" transform="translate(-44.612 -111.093)"/><path class="b" d="M154.76,38.172a.639.639,0,0,0-.7.568,24.391,24.391,0,0,1-.924,4.4,37.857,37.857,0,0,1-8.5,15.3,32.92,32.92,0,0,1-3.448,3.167q-.632.5-1.288.973-1.353.973-2.8,1.812a11.449,11.449,0,0,1-7.41,1.666q-.531-.1-1.025-.238c1.425-1.065,2.682-2.148,4.06-3.392,1.57-1.418,2.945-2.731,4.2-4.016l0-.006.006-.006.742-.8a40.827,40.827,0,0,0,10.267-15.881l.4-1.146c1.159-3.352,2.223-6.909,3.17-10.587a9.373,9.373,0,0,1,1.885,2.9,9.515,9.515,0,0,1,.63,2.361.639.639,0,0,0,1.265-.176,10.8,10.8,0,0,0-.717-2.678q-.127-.3-.271-.6a11.455,11.455,0,0,0-3.7-4.215c-1.536-1.133-3.569-2-5.446-1.181a3.792,3.792,0,0,0-1.553,1.272,4.876,4.876,0,0,0-.641,1.215c-.037.1-1.3,4.086-1.769,6.051a3.213,3.213,0,0,0,.957,3.525,5.391,5.391,0,0,0,1.076.7c.9.458,1.847.846,2.79,1.226l.388.156.519.2-.193.552a39.558,39.558,0,0,1-9.96,15.4l-.025.025-.314.337-.668-.657a27.316,27.316,0,0,0-2.11-2.059c-1.708-1.343-3.154-1.375-4.833-.105a47.616,47.616,0,0,0-5.008,4.252c-1.887,1.9-1.862,3.888.075,5.918a9.512,9.512,0,0,0,2.281,1.76l0,0a9.743,9.743,0,0,0,.876.431l.038.014a11.023,11.023,0,0,0,2.368.7,9.013,9.013,0,0,0,1.6.139,13.567,13.567,0,0,0,6.676-1.958q1.5-.876,2.921-1.894.712-.512,1.4-1.06a35.093,35.093,0,0,0,7.831-8.913q.652-1.054,1.232-2.151a44.278,44.278,0,0,0,3.232-7.971,25.662,25.662,0,0,0,.971-4.637.639.639,0,0,0-.568-.7Zm-7.868,1.192c-.83-.324-1.638-.654-2.443-1.028A6.233,6.233,0,0,1,143,37.5a1.988,1.988,0,0,1-.545-2.255c.447-1.858,1.657-5.7,1.728-5.916a3.613,3.613,0,0,1,.471-.9,2.537,2.537,0,0,1,1.034-.855c1.646-.722,3.483.468,4.746,1.435l.019.015c-.921,3.648-1.96,7.179-3.093,10.514l-.465-.179Zm-20.13,25.667v0a8.241,8.241,0,0,1-1.933-1.508c-1.463-1.534-1.49-2.732-.094-4.135a45.714,45.714,0,0,1,4.872-4.134c1.2-.91,2.03-.887,3.273.09.64.5,2.682,2.634,2.682,2.634-1.115,1.12-2.327,2.269-3.69,3.5a51.143,51.143,0,0,1-4.631,3.8C127.078,65.2,126.919,65.119,126.762,65.031Z" transform="translate(-109.123 -23.864)"/></g></g></g></svg>