<svg xmlns="http://www.w3.org/2000/svg" width="50" height="49.999" viewBox="0 0 50 49.999"><defs><style>.a{fill:#262626;}.b{fill:#fff;}</style></defs><g transform="translate(-1775.873 -163.816)"><path class="a" d="M1800.873,213.815h0a25,25,0,0,1-25-25h0a25,25,0,0,1,25-25h0a25,25,0,0,1,25,25h0A25,25,0,0,1,1800.873,213.815Z"/><path class="b" d="M1817.8,186.409c-.411-7.155-7.835-12.856-16.933-12.856-9.362,0-16.951,6.038-16.951,13.484,0,6.845,6.411,12.5,14.711,13.367a.921.921,0,0,1,.818,1.013v.007l-.353,3.184a.924.924,0,0,0,1.323.933c7.017-3.386,11.213-6.872,13.72-9.89.455-.549,1.943-2.632,2.246-3.184a11.332,11.332,0,0,0,1.3-3.714,8.644,8.644,0,0,0,.134-1.026Q1817.838,187.068,1817.8,186.409Zm-23.659,5.093h-3.468a.868.868,0,0,1-.868-.867h0v-6.547a.866.866,0,0,1,.866-.866h0a.866.866,0,0,1,.867.864v5.684h2.6a.868.868,0,0,1,.867.868h0a.866.866,0,0,1-.861.864Zm3.424-.678a.677.677,0,0,1-.677.678h-.38a.678.678,0,0,1-.678-.678h0V183.9a.676.676,0,0,1,.677-.676h.381a.675.675,0,0,1,.677.675h0Zm8.064-.226a.9.9,0,0,1-.875.91.861.861,0,0,1-.587-.236c-.051-.049-3.567-4.6-3.567-4.6v3.975a.866.866,0,0,1-.864.868h0a.868.868,0,0,1-.867-.868h0v-6.51a.892.892,0,0,1,.834-.9.865.865,0,0,1,.681.29c.051.059,3.515,4.575,3.515,4.575v-4a.867.867,0,0,1,1.734,0Zm5.636-4.1a.868.868,0,0,1,.867.868h0a.867.867,0,0,1-.867.867h-2.6v1.541h2.6a.868.868,0,0,1,.867.868h0a.867.867,0,0,1-.867.867H1807.8a.868.868,0,0,1-.866-.867v-6.547a.866.866,0,0,1,.866-.866h3.469a.866.866,0,0,1,.867.864v0a.867.867,0,0,1-.867.867h-2.6V186.5Z"/></g></svg>