<svg xmlns="http://www.w3.org/2000/svg" width="40" height="40" viewBox="0 0 40 40"><defs><style>.a{fill:#f3c000;}.b{fill:#fff;}</style></defs><path class="a" d="M-111.533,120.114h0a20,20,0,0,1-20-20h0a20,20,0,0,1,20-20h0a20,20,0,0,1,20,20h0A20,20,0,0,1-111.533,120.114Z" transform="translate(131.533 -80.114)"/><g transform="translate(7.513 10.333)"><path class="b" d="M-94.708,127.262a2.134,2.134,0,0,0,1.462-.552l-7.076-7.076-.49.352q-.794.585-1.289.912a7.874,7.874,0,0,1-1.317.669,4.011,4.011,0,0,1-1.533.341h-.028a4.007,4.007,0,0,1-1.533-.341,7.883,7.883,0,0,1-1.317-.669q-.494-.327-1.289-.912c-.147-.108-.311-.227-.488-.354l-7.077,7.077a2.133,2.133,0,0,0,1.462.552Z" transform="translate(117.451 -107.927)"/><path class="b" d="M-116.137,110.685a7.387,7.387,0,0,1-1.408-1.213v10.765l6.236-6.236Q-113.18,112.694-116.137,110.685Z" transform="translate(117.832 -103.433)"/><path class="b" d="M-80.132,110.685q-2.848,1.927-4.841,3.319l6.234,6.234V109.472A7.666,7.666,0,0,1-80.132,110.685Z" transform="translate(103.425 -103.433)"/><path class="b" d="M-95.317,98.643H-115.83a1.99,1.99,0,0,0-1.651.724,2.81,2.81,0,0,0-.578,1.812,3.256,3.256,0,0,0,.766,1.9,6.923,6.923,0,0,0,1.631,1.609q.473.335,2.857,1.986c.858.594,1.6,1.113,2.245,1.56.546.38,1.017.71,1.406.984l.208.148.384.277q.453.328.753.53t.724.453a4.237,4.237,0,0,0,.8.376,2.211,2.211,0,0,0,.7.125h.028a2.214,2.214,0,0,0,.7-.125,4.218,4.218,0,0,0,.8-.376q.425-.251.725-.453t.752-.53l.384-.277.209-.148,1.41-.98,5.112-3.55a6.626,6.626,0,0,0,1.7-1.714,3.685,3.685,0,0,0,.682-2.1,2.138,2.138,0,0,0-.662-1.575A2.155,2.155,0,0,0-95.317,98.643Z" transform="translate(118.06 -98.643)"/></g></svg>