<svg xmlns="http://www.w3.org/2000/svg" width="40" height="40" viewBox="0 0 40 40"><defs><style>.a{fill:#f3c000;}.b{fill:#fff;}</style></defs><path class="a" d="M-111.533,120.114h0a20,20,0,0,1-20-20h0a20,20,0,0,1,20-20h0a20,20,0,0,1,20,20h0A20,20,0,0,1-111.533,120.114Z" transform="translate(131.533 -80.114)"/><path class="b" d="M76.464,9.656c0,7.732-8.729,14.893-8.729,14.893a1.527,1.527,0,0,1-1.855,0s-8.729-7.161-8.729-14.893a9.656,9.656,0,0,1,19.313,0Z" transform="translate(-46.391 7.641)"/><path class="a" d="M160.817,108.522a4.858,4.858,0,1,1,4.858-4.858A4.864,4.864,0,0,1,160.817,108.522Z" transform="translate(-140.401 -86.367)"/></svg>