<svg xmlns="http://www.w3.org/2000/svg" width="40" height="40" viewBox="0 0 40 40"><defs><style>.a{fill:#fff;}.b{fill:#f3c000;}</style></defs><ellipse class="a" cx="15" cy="14" rx="15" ry="14" transform="translate(5.026 6)"/><path class="b" d="M224.113,218.478l9.063-5.22-9.063-5.22Z" transform="translate(-207.29 -193.259)"/><path class="b" d="M20,0A20,20,0,1,0,40,20,20,20,0,0,0,20,0ZM32.5,20.02a33.009,33.009,0,0,1-.515,6.012,3.131,3.131,0,0,1-2.2,2.2C27.824,28.75,20,28.75,20,28.75s-7.8,0-9.779-.535a3.132,3.132,0,0,1-2.2-2.2A32.863,32.863,0,0,1,7.5,20a32.987,32.987,0,0,1,.515-6.012,3.2,3.2,0,0,1,2.2-2.224C12.176,11.25,20,11.25,20,11.25s7.824,0,9.779.535a3.132,3.132,0,0,1,2.2,2.2A31.322,31.322,0,0,1,32.5,20.02Z" transform="translate(0 0)"/></svg>