<svg xmlns="http://www.w3.org/2000/svg" width="232.715" height="44.643" viewBox="0 0 232.715 44.643"><defs><style>.a{fill:#d6d6d6;}.b{fill:none;}.c{fill:#b36b0b;}.d{fill:#f1b500;}.e{fill:#f3c000;}</style></defs><g transform="translate(-269.371 -211.174)"><g transform="translate(319.627 221.022)"><path class="a" d="M338.289,232.54v-1.891h6.762v-5.671h2.981v5.671h6.835v1.891h-6.835v9.09h-2.981v-9.09Z" transform="translate(-338.289 -224.76)"/><path class="a" d="M364.007,230.358V228.4h6.471v-3.417h3.2V228.4h6.472v1.963h-6.472a10.887,10.887,0,0,0,6.762,9.526v1.746q-6.254-2.183-8.289-6.4-2.328,4.362-8.435,6.4v-1.746a11,11,0,0,0,6.762-9.526Z" transform="translate(-345.174 -224.76)"/><path class="a" d="M396.143,241.039A7.428,7.428,0,0,1,392,239.948a11.849,11.849,0,0,1-2.837,1.6V239.8a5.4,5.4,0,0,0,1.528-.945,10.792,10.792,0,0,1-1.746-5.09h2.181a10.238,10.238,0,0,0,.8,3.2,5.559,5.559,0,0,0,.218-1.6v-2.836h-2.763v-1.6a10.112,10.112,0,0,0,2.471-3.636h-2.544v-1.672h5.162V227.3a8.584,8.584,0,0,1-2.618,3.636h2.618v3.927a6.464,6.464,0,0,1-1.09,3.853,5.383,5.383,0,0,0,2.908.727h9.526v1.6Zm-1.6-11.416v-1.454h3.709V227.15H395.27v-1.526h2.982v-.945H400.8v.945h4v2.545H406.1v1.454H404.8v.073a2.113,2.113,0,0,1-2.472,2.472H400.8v1.163h4.145v1.528H400.8v1.162h4.654v1.528H400.8V239h-2.545v-1.454h-3.636v-1.528h3.636v-1.162h-3.2v-1.528h3.2v-1.163H395.2v-1.454h3.055v-1.091Zm7.853-2.473h-1.6v1.019h1.6Zm-.872,3.564q.944.073.872-.873v-.218h-1.6v1.091Z" transform="translate(-352.006 -224.679)"/><path class="a" d="M437.7,241.891v-1.818a6.589,6.589,0,0,0,.8-4v-10.4h5.817v13.743q.145,2.325-2.326,2.181H440.9v-1.527h.509q.8,0,.727-.872v-3.055h-1.382Q440.83,240.219,437.7,241.891Zm3.054-14.543v2.69h1.382v-2.69Zm0,4.363v2.836h1.382v-2.836ZM454.5,241.819a25.02,25.02,0,0,1-5.017-1.891,40.1,40.1,0,0,1-4.872,1.891v-1.673a16.381,16.381,0,0,0,3.2-1.527,11.366,11.366,0,0,1-2.618-4.072h2.618a11.473,11.473,0,0,0,1.6,2.545,10.585,10.585,0,0,0,1.889-3.127h-6.18v-1.818h8.871v1.818a10.449,10.449,0,0,1-2.836,4.654,15.375,15.375,0,0,0,3.345,1.527Zm-1.891-10.471q-2.253.074-2.181-2.108v-1.746h-1.963v.654q.218,3.2-3.708,3.637V230.33a1.867,1.867,0,0,0,1.309-2.11v-2.472H452.9v3.127q-.074.872.8.8h.8v1.672Z" transform="translate(-365.21 -224.949)"/><path class="a" d="M464.778,241.63V231.522a.785.785,0,0,1-.292.145q-.873.292-1.454.436v-1.527q2.4-1.6,3.127-5.6h2.618a13.542,13.542,0,0,1-1.455,4.144V241.63Zm8.725-.292v-1.672h1.09q1.092.073,1.019-1.018v-5.09h-2.327a7.677,7.677,0,0,1-5.163,8.072v-1.746q2.617-1.671,2.545-6.326h-1.309V232.1c-.194.1-.485.267-.873.509a3.263,3.263,0,0,0-.581.292v-1.746a9,9,0,0,0,2.981-5.89h2.691q-.583,4.654-3.709,6.545h8.144q-3.126-1.89-3.708-6.545h2.69a8.982,8.982,0,0,0,2.981,5.89V232.9a13.742,13.742,0,0,1-1.381-.727,1.607,1.607,0,0,1-.363-.219v6.69q.071,2.762-2.618,2.69Z" transform="translate(-372.068 -224.76)"/><path class="a" d="M489.1,228.3V226.4h5.017a2.3,2.3,0,0,0,.145-.437,4.4,4.4,0,0,0,.364-1.09h2.981a6.93,6.93,0,0,1-.363,1.09,2.351,2.351,0,0,1-.145.437h8.579v1.89H496.3a4.337,4.337,0,0,1-.872,1.527h8.653v9.235q.071,2.544-2.4,2.472h-2.036v-1.672h.946c.532,0,.774-.265.727-.8v-.8h-6.908V241.6h-2.763v-7.708q-.583.365-1.745,1.164a8.873,8.873,0,0,0-.945.582V233.6a15.038,15.038,0,0,0,4.435-5.309Zm5.308,3.418v1.454h6.908v-1.454Zm0,3.2v1.526h6.908v-1.526Z" transform="translate(-379.089 -224.733)"/><path class="a" d="M514.984,241.918V225.775h5.745v1.745a11.979,11.979,0,0,1-1.091,4.581,5.708,5.708,0,0,1,1.236,3.709q0,3.708-3.345,3.708v-2.036q1.309.074,1.309-1.891a5.145,5.145,0,0,0-1.163-3.417,16.6,16.6,0,0,0,.872-4.654h-1.309v14.4Zm6.472,0v-16.07H530.4v5.963a2.114,2.114,0,0,1-2.473,2.471h-4.072v4.654a8.105,8.105,0,0,1,1.091-.508q.363-.146.655-.291v1.89A17.674,17.674,0,0,1,521.456,241.918Zm2.4-14.325v1.6h4.291v-1.6Zm3.345,4.945q1.018.072.946-1.019v-.581h-4.291v1.6Zm4.145,9.161a9.122,9.122,0,0,1-6.908-6.835h2.4a10.974,10.974,0,0,0,.8,2.182,4.571,4.571,0,0,0,1.454-2.182h2.181a5.4,5.4,0,0,1-2.69,3.418,7.025,7.025,0,0,0,2.763,1.818Z" transform="translate(-386.136 -224.976)"/><path class="a" d="M539.913,234.011v-1.746a9.366,9.366,0,0,0,4.218-6.689h2.908A10.918,10.918,0,0,1,539.913,234.011Zm13.161,7.489c-.146-.534-.268-1.017-.364-1.454a48.808,48.808,0,0,1-9.6.8h-1.6v-2.109a20.575,20.575,0,0,0,4.581-7.344h3.2a19.986,19.986,0,0,1-5.017,7.344,73.685,73.685,0,0,0,7.854-.363,20.716,20.716,0,0,0-.874-2.037q-.291-.654-.435-1.017h2.4a26.567,26.567,0,0,1,2.472,6.18Zm3.562-7.489a10.743,10.743,0,0,1-7.125-8.435h2.908a9.363,9.363,0,0,0,4.217,6.689Z" transform="translate(-392.887 -224.922)"/><path class="a" d="M565.541,230.919V229.1h12.288v1.817Zm10.688,10.834v-1.744h1.455q1.091.072,1.018-1.091V227.793H566.194v-1.818h15.27v13.088q.071,2.763-2.691,2.69Zm-9.453-2.544v-6.836h9.744v4.218q.072,2.691-2.472,2.618Zm2.545-1.673H573.1a.77.77,0,0,0,.872-.872v-2.618h-4.654Z" transform="translate(-399.827 -225.03)"/><path class="a" d="M432.659,241.938A18.439,18.439,0,0,1,427.976,240a19.921,19.921,0,0,1-4.334,1.878v-1.651a9.014,9.014,0,0,0,2.811-1.519,14.52,14.52,0,0,1-2.37-3.948h2.257a14.285,14.285,0,0,0,1.58,2.584,9.8,9.8,0,0,0,1.862-3.23h-5.868V232.32h8.126v1.723a11.6,11.6,0,0,1-2.539,4.737,11.453,11.453,0,0,0,3.16,1.507ZM430.8,231.458q-1.692.072-1.636-2.081V227.8h-2.37v.718q.17,3.015-3.273,3.373v-1.364a1.849,1.849,0,0,0,1.3-2.082V226h6.32v3.015c-.038.574.169.838.621.789h.9v1.651Z" transform="translate(-361.368 -225.038)"/><path class="a" d="M414.1,228.708v-1.8h1.885v-1.111h3.157V226.9h2v1.8Zm.376,12.566v-5.762h6.464v3.332q.071,2.5-2.512,2.43Zm-.035-6.943v-1.666h6.212v1.666Zm.071-2.846v-1.666h6.141v1.666Zm2.368,8.484h.543q.862.07.861-.9v-2.11h-1.4Z" transform="translate(-358.819 -224.98)"/></g><g transform="translate(269.371 211.174)"><path class="b" d="M274.379,222.829V250.32l1.8.24V221.892Z" transform="translate(-270.727 -214.077)"/><path class="b" d="M296.968,272.154v.176l.237-.055V272.2Z" transform="translate(-276.844 -227.687)"/><path class="b" d="M314.273,218.305v36.5l1.539-.359V218.958Z" transform="translate(-281.53 -213.105)"/><path class="b" d="M283.8,217.965v37.577l1.625.289V217.12Z" transform="translate(-273.278 -212.784)"/><path class="c" d="M269.371,225.077v25.105l3.652.487V223.177Z" transform="translate(-269.371 -214.425)"/><path class="c" d="M276.85,220.914v34.04l5.066.9V218.279Z" transform="translate(-271.396 -213.098)"/><path class="c" d="M297.2,231.724l-.235,29.482.235.042Z" transform="translate(-276.844 -216.739)"/><path class="c" d="M294.361,211.175l-8.335,4.335v38.711l7.98,1.421.235-29.482Z" transform="translate(-273.881 -211.175)"/><path class="c" d="M297.457,211.174h0Z" transform="translate(-276.976 -211.174)"/><path class="d" d="M297.456,211.174h0Z" transform="translate(-276.976 -211.174)"/><path class="e" d="M297.412,211.175l-.11,44.51-.011,0v.079l12.383-2.885v-36.5Z" transform="translate(-276.932 -211.175)"/><path class="d" d="M297.292,255.683l.011,0,.11-44.51h0l-.12,14.984Z" transform="translate(-276.932 -211.174)"/><path class="e" d="M316.383,219.2v35.492l6.328-1.474-.133-4.75,3.514-.475V223.317Z" transform="translate(-282.102 -213.348)"/></g><g transform="translate(320.1 242.104)"><path class="c" d="M341.487,255.439h-2.549v-1.826h7.655v1.826h-2.982V262.1h-2.123Z" transform="translate(-338.938 -253.596)"/><path class="c" d="M359.33,257.837a4.276,4.276,0,0,1-1.117,3.076,4.141,4.141,0,0,1-3.148,1.173,4.059,4.059,0,0,1-3.139-1.219,4.3,4.3,0,0,1-1.126-3.029,4.1,4.1,0,0,1,1.2-3.074,4.246,4.246,0,0,1,7.328,3.074Zm-2.226,0a3.163,3.163,0,0,0-.451-1.729,1.619,1.619,0,0,0-1.479-.709,1.825,1.825,0,0,0-1.6.718,2.913,2.913,0,0,0-.505,1.72,3.077,3.077,0,0,0,.5,1.641,1.749,1.749,0,0,0,1.6.807,1.609,1.609,0,0,0,1.479-.722A3.191,3.191,0,0,0,357.1,257.837Z" transform="translate(-342.15 -253.589)"/><path class="c" d="M366.6,259.016V262.1l-2.107-.009v-8.478h5.072a2.34,2.34,0,0,1,2.259,2.429v.51a2.349,2.349,0,0,1-2.242,2.463Zm.017-1.682h2.557q.544-.162.535-1.019a.816.816,0,0,0-.7-.866h-2.4Z" transform="translate(-345.859 -253.596)"/><path class="c" d="M379.47,255.439h-2.549v-1.826h7.343v1.826h-2.67v6.653l-2.123.009Z" transform="translate(-349.223 -253.596)"/><path class="e" d="M395.469,253.624v1.852h-6.456v-1.852Zm0,3.262V258.7h-6.456v-1.818Zm0,3.373V262.1h-6.456v-1.844Z" transform="translate(-352.498 -253.598)"/><path class="c" d="M401.884,257.1v4.986l-2.115.009v-8.471l-.008-.016h.008V253.6h2.115v.009l3.407,4.936V253.61h2.133v7.565l.034.922h-2.166v-.069Z" transform="translate(-355.408 -253.592)"/></g><g transform="translate(376.111 242.074)"><path class="c" d="M415.748,262.179V253.8h3.638q3.172,0,3.173,2.411a2.165,2.165,0,0,1-1.5,2.223l1.587,3.745h-2.088l-1.38-3.379h-1.485v3.379Zm3.4-6.958h-1.45V257.4h1.439q1.421,0,1.421-1.108Q420.553,255.221,419.144,255.22Z" transform="translate(-415.748 -253.617)"/><path class="c" d="M426.664,262.179V253.8H432.6v1.509h-4.045v1.822h3.26v1.415h-3.26v2.1h4.1v1.533Z" transform="translate(-418.704 -253.617)"/><path class="c" d="M435.218,262.179l2.654-8.379H440l2.665,8.379h-2l-.6-2h-2.629l-.586,2Zm2.605-3.42h1.867l-.945-3.109Z" transform="translate(-421.02 -253.617)"/><path class="c" d="M446.434,262.179V253.8h1.97v6.834h3.491v1.544Z" transform="translate(-424.057 -253.617)"/><path class="c" d="M459.866,262.179V253.8H465.8v1.509h-4.045v1.822h3.261v1.415h-3.261v2.1h4.1v1.533Z" transform="translate(-427.695 -253.617)"/><path class="c" d="M468.9,259.758l1.822-.354a1.77,1.77,0,0,0,1.935,1.333,1.586,1.586,0,0,0,.958-.269.829.829,0,0,0,.368-.7q0-.668-1.578-1.082c-.071-.019-.165-.041-.279-.067l-.183-.047a4.7,4.7,0,0,1-2.04-.944,1.925,1.925,0,0,1-.6-1.461,2.308,2.308,0,0,1,.9-1.892,3.69,3.69,0,0,1,2.379-.725,3.087,3.087,0,0,1,3.208,2.1l-1.675.46a1.57,1.57,0,0,0-1.61-1.1,1.465,1.465,0,0,0-.9.257.791.791,0,0,0-.346.659q0,.6,1.463.982c.114.028.24.06.378.1l.165.043a5.283,5.283,0,0,1,1.958.826A2.114,2.114,0,0,1,476,259.61a2.312,2.312,0,0,1-.971,1.911,3.966,3.966,0,0,1-2.5.75,4.051,4.051,0,0,1-2.365-.664A3.145,3.145,0,0,1,468.9,259.758Z" transform="translate(-430.141 -253.549)"/><path class="c" d="M483.045,255.321v6.857h-1.952v-6.857h-1.934V253.8h5.82v1.521Z" transform="translate(-432.919 -253.617)"/><path class="c" d="M486.987,262.179l2.654-8.379h2.129l2.665,8.379h-2l-.6-2H489.2l-.586,2Zm2.6-3.42h1.867l-.945-3.109Z" transform="translate(-435.039 -253.617)"/><path class="c" d="M500.981,255.321v6.857h-1.952v-6.857h-1.935V253.8h5.821v1.521Z" transform="translate(-437.776 -253.617)"/><path class="c" d="M506.152,262.179V253.8h5.932v1.509h-4.045v1.822H511.3v1.415h-3.261v2.1h4.1v1.533Z" transform="translate(-440.229 -253.617)"/><path class="c" d="M525.586,256.837a2.249,2.249,0,0,0-.448-1.3,1.241,1.241,0,0,0-1-.472q-1.675,0-1.674,2.86,0,2.818,1.674,2.818,1.222,0,1.5-1.669l1.786.183a3.617,3.617,0,0,1-1.076,2.229,3.176,3.176,0,0,1-2.232.79,3.336,3.336,0,0,1-2.686-1.174,5.553,5.553,0,0,1,.009-6.353,3.346,3.346,0,0,1,2.689-1.184,3.159,3.159,0,0,1,2.261.817,3.606,3.606,0,0,1,1.035,2.3Z" transform="translate(-444.095 -253.553)"/><path class="c" d="M534.741,262.274a3.423,3.423,0,0,1-2.724-1.194,5.372,5.372,0,0,1,0-6.327,3.72,3.72,0,0,1,5.454,0,5.342,5.342,0,0,1,0,6.322A3.43,3.43,0,0,1,534.741,262.274Zm0-1.534a1.37,1.37,0,0,0,1.235-.737,5.225,5.225,0,0,0,0-4.184,1.411,1.411,0,0,0-2.474,0,5.274,5.274,0,0,0,0,4.189A1.363,1.363,0,0,0,534.741,260.741Z" transform="translate(-446.953 -253.553)"/><path class="c" d="M542.985,264.585v-1.9h1.981v1.9Z" transform="translate(-450.203 -256.023)"/><path class="c" d="M548.046,264.652v-1.893H550v1.711l-1.156,2.139H548l.92-1.957Z" transform="translate(-451.56 -256.043)"/><path class="c" d="M558.035,262.179V253.8H560v6.834h3.491v1.544Z" transform="translate(-454.278 -253.617)"/><path class="c" d="M569.206,255.321v6.857h-1.952v-6.857H565.32V253.8h5.82v1.521Z" transform="translate(-456.251 -253.617)"/><path class="c" d="M574.378,262.174v-8.391h2.96a4.5,4.5,0,0,1,2.512.6,3.725,3.725,0,0,1,1.291,1.495,4.717,4.717,0,0,1,.46,2.1,4.082,4.082,0,0,1-1.153,3.075,4.362,4.362,0,0,1-3.169,1.117Zm1.934-6.893v5.372H577.4a1.844,1.844,0,0,0,1.54-.7,3.128,3.128,0,0,0,.548-1.972,3.2,3.2,0,0,0-.548-1.988,1.831,1.831,0,0,0-1.54-.713Z" transform="translate(-458.703 -253.612)"/><path class="c" d="M585.787,264.585v-1.9h1.981v1.9Z" transform="translate(-461.793 -256.023)"/></g></g></svg>