<svg xmlns="http://www.w3.org/2000/svg" width="207.331" height="75.221" viewBox="0 0 207.331 75.221"><defs><style>.a{fill:#262626;}.b{fill:none;}.c{fill:#b36b0b;}.d{fill:#f1b500;}.e{fill:#f3c000;}</style></defs><g transform="translate(-193.193 -418.746)"><g transform="translate(282.648 429.268)"><path class="a" d="M266,439.956v-3.089h11.048V427.6h4.872v9.267h11.167v3.089H281.919v14.85h-4.872v-14.85Z" transform="translate(-265.999 -427.244)"/><path class="a" d="M291.13,436.391v-3.208H301.7V427.6h5.228v5.583h10.573v3.208H306.932q.949,10.933,11.048,15.564v2.851q-10.218-3.564-13.544-10.454-3.8,7.129-13.781,10.454v-2.851q10.1-4.749,11.048-15.564Z" transform="translate(-260.36 -427.244)"/><path class="a" d="M326.881,454.04a12.149,12.149,0,0,1-6.772-1.78,19.345,19.345,0,0,1-4.633,2.612v-2.851a8.781,8.781,0,0,0,2.5-1.544q-2.14-2.851-2.852-8.317h3.564a16.7,16.7,0,0,0,1.306,5.228,9.033,9.033,0,0,0,.356-2.613v-4.633h-4.514v-2.615a16.526,16.526,0,0,0,4.04-5.939h-4.158v-2.733h8.434v2.733a14.053,14.053,0,0,1-4.276,5.939h4.276v6.416a10.557,10.557,0,0,1-1.782,6.3,8.8,8.8,0,0,0,4.753,1.189h15.564v2.612Zm-2.615-18.651v-2.376h6.059V431.35h-4.869v-2.5h4.869V427.31h4.159v1.544h6.534v4.158h2.138v2.376h-2.138v.119q.116,4.16-4.04,4.04h-2.494v1.9h6.771v2.5h-6.771v1.9h7.6v2.5h-7.6v2.376h-4.159v-2.376h-5.939v-2.5h5.939v-1.9H325.1v-2.5h5.227v-1.9h-4.988v-2.376h4.988v-1.783ZM337.1,431.35h-2.613v1.662H337.1Zm-1.425,5.821q1.543.118,1.425-1.426v-.356h-2.613v1.783Z" transform="translate(-254.766 -427.31)"/><path class="a" d="M363.58,454.629a30.117,30.117,0,0,1-7.652-3.166,32.589,32.589,0,0,1-7.082,3.068v-2.7a14.743,14.743,0,0,0,4.593-2.482,23.733,23.733,0,0,1-3.873-6.449h3.688a23.294,23.294,0,0,0,2.581,4.222,16.044,16.044,0,0,0,3.042-5.278h-9.589v-2.932h13.277v2.815a18.946,18.946,0,0,1-4.149,7.739,18.636,18.636,0,0,0,5.163,2.462Zm-3.043-17.122q-2.765.118-2.672-3.4v-2.58h-3.873V432.7q.276,4.926-5.347,5.512v-2.228a3.021,3.021,0,0,0,2.121-3.4V428.6h10.326v4.926c-.063.937.276,1.369,1.014,1.289h1.476v2.7Z" transform="translate(-247.1 -427.016)"/><path class="a" d="M339.515,433.154V430.2h3.079V428.39h5.16V430.2h3.27v2.949Zm.616,20.534v-9.417h10.562v5.445q.116,4.084-4.105,3.971Zm-.058-11.344V439.62h10.15v2.723Zm.117-4.651V434.97h10.033v2.723Zm3.87,13.862h.886q1.408.114,1.407-1.474v-3.448H344.06Z" transform="translate(-249.187 -427.063)"/></g><g transform="translate(193.193 418.746)"><path class="b" d="M198.2,431.042v46.321l3.035.4v-48.3Z" transform="translate(-192.048 -416.295)"/><path class="b" d="M220.791,479.725l0,.3.4-.093V479.8Z" transform="translate(-186.882 -404.801)"/><path class="b" d="M238.094,425.877v61.505l2.593-.6v-59.8Z" transform="translate(-182.925 -417.115)"/><path class="b" d="M207.619,426.115v63.314l2.738.487V424.691Z" transform="translate(-189.894 -417.386)"/><path class="c" d="M193.193,433.949v42.3l6.153.82V430.748Z" transform="translate(-193.193 -416.001)"/><path class="c" d="M200.671,430.29v57.355l8.537,1.52V425.85Z" transform="translate(-191.483 -417.121)"/><path class="c" d="M221.187,439.295l-.4,49.675.4.071Z" transform="translate(-186.882 -414.046)"/><path class="c" d="M223.891,418.746l-14.044,7.3v65.226l13.446,2.393.4-49.675Z" transform="translate(-189.384 -418.745)"/><path class="c" d="M221.279,418.746h0Z" transform="translate(-186.77 -418.746)"/><path class="d" d="M221.277,418.746h0Z" transform="translate(-186.77 -418.746)"/><path class="e" d="M221.316,418.746l-.185,75-.018,0v.134l20.864-4.861V427.507Z" transform="translate(-186.808 -418.745)"/><path class="d" d="M221.113,493.74l.018,0,.185-75h0l-.2,25.248Z" transform="translate(-186.808 -418.745)"/><path class="e" d="M240.2,426.771v59.8l10.662-2.484-.223-8,5.92-.8V433.708Z" transform="translate(-182.442 -416.91)"/></g><g transform="translate(284.445 466.759)"><path class="c" d="M273.146,461.927h-5.685v-4.072h17.071v4.072h-6.65v14.856h-4.737Z" transform="translate(-267.461 -457.816)"/><path class="c" d="M302.186,467.3a9.538,9.538,0,0,1-2.492,6.86,9.245,9.245,0,0,1-7.021,2.615,9.053,9.053,0,0,1-7-2.72,9.58,9.58,0,0,1-2.51-6.754,9.151,9.151,0,0,1,2.681-6.858,9.471,9.471,0,0,1,16.343,6.858Zm-4.964,0a7.068,7.068,0,0,0-1-3.857,3.612,3.612,0,0,0-3.3-1.581,4.065,4.065,0,0,0-3.571,1.6,6.5,6.5,0,0,0-1.128,3.837,6.857,6.857,0,0,0,1.119,3.658,3.9,3.9,0,0,0,3.579,1.8,3.592,3.592,0,0,0,3.3-1.61A7.133,7.133,0,0,0,297.222,467.3Z" transform="translate(-263.871 -457.823)"/><path class="c" d="M305.987,469.9v6.878l-4.7-.018V457.855H312.6q5,.872,5.038,5.417v1.138q-.035,4.622-5,5.495Zm.038-3.751h5.7q1.211-.361,1.193-2.273a1.821,1.821,0,0,0-1.553-1.933h-5.344Z" transform="translate(-259.725 -457.816)"/><path class="c" d="M323.42,461.927h-5.685v-4.072h16.377v4.072h-5.955v14.838l-4.737.018Z" transform="translate(-255.964 -457.816)"/><path class="e" d="M348.139,457.87V462h-14.4v-4.13Zm0,7.276V469.2h-14.4v-4.055Zm0,7.521v4.112h-14.4v-4.112Z" transform="translate(-252.304 -457.812)"/><path class="c" d="M352.7,465.646v11.122l-4.718.018V457.9l-.018-.037h.018v-.018H352.7v.018l7.6,11.008V457.858h4.756v16.871l.076,2.057H360.3v-.152Z" transform="translate(-249.051 -457.819)"/></g></g></svg>